<?xml version="1.0" standalone="no"?>
<!DOCTYPE svg PUBLIC "-//W3C//DTD SVG 20010904//EN"
 "http://www.w3.org/TR/2001/REC-SVG-20010904/DTD/svg10.dtd">
<svg version="1.0" xmlns="http://www.w3.org/2000/svg"
 width="1800.000000pt" height="1600.000000pt" viewBox="0 0 1800.000000 1600.000000"
 preserveAspectRatio="xMidYMid meet">

<g transform="translate(0.000000,1600.000000) scale(0.100000,-0.100000)"
fill="#000000" stroke="none">
<path d="M1720 9060 l0 -1900 7360 0 7360 0 0 1900 0 1900 -7360 0 -7360 0 0
-1900z m3145 1120 c312 -98 485 -340 547 -765 20 -135 16 -492 -6 -640 -71
-469 -266 -831 -550 -1019 -271 -179 -621 -166 -859 32 -204 169 -337 499
-337 833 0 46 -5 123 -11 171 -7 62 -7 119 0 194 14 141 33 241 41 219 4 -12
16 17 34 81 16 54 44 142 63 194 143 384 401 643 710 711 114 25 267 20 368
-11z m6250 0 c378 -97 566 -405 591 -967 17 -389 -71 -805 -228 -1078 -155
-268 -368 -439 -610 -489 -161 -33 -316 -15 -458 55 -68 34 -102 59 -175 133
-51 52 -107 119 -128 156 -176 306 -213 807 -95 1294 16 67 19 91 10 94 -7 2
-12 15 -12 28 l0 24 -154 0 -154 0 -6 -37 c-6 -33 -206 -1688 -206 -1699 0 -2
-129 -4 -286 -4 l-286 0 6 48 c33 253 186 1573 186 1603 0 21 -4 39 -10 39 -5
0 -10 11 -10 25 l0 25 -160 0 c-146 0 -160 2 -160 18 2 50 78 670 84 680 5 9
160 12 632 12 l624 0 -5 -37 c-14 -94 -65 -546 -64 -566 0 -17 5 -13 18 17 14
33 19 37 24 21 10 -25 17 -16 77 95 116 212 258 359 435 447 119 60 206 80
346 82 66 1 120 -5 174 -19z m-8295 -62 c0 -18 -20 -203 -44 -410 l-42 -378
22 0 c12 0 24 -7 28 -15 4 -12 29 -15 133 -15 70 0 134 4 141 9 10 6 29 131
63 412 41 336 52 406 66 418 15 11 68 12 287 7 148 -3 271 -8 273 -9 1 -2 -63
-553 -144 -1225 l-148 -1222 -287 0 c-178 0 -288 4 -288 10 0 5 23 192 50 416
34 277 47 411 40 418 -5 5 -10 20 -10 33 l0 23 -160 0 c-101 0 -160 -4 -160
-10 0 -6 -22 -202 -50 -437 -27 -235 -50 -433 -50 -440 0 -10 -58 -13 -291
-13 l-291 0 5 33 c3 17 67 561 143 1207 90 780 141 1183 150 1198 14 22 15 22
289 22 l275 0 0 -32z m3534 5 c3 -16 20 -293 38 -617 29 -532 34 -586 46 -554
8 20 21 38 31 41 12 3 55 135 170 518 185 618 186 620 203 630 18 12 545 11
552 0 5 -8 -27 -1490 -48 -2241 l-5 -175 24 165 c13 91 24 171 24 178 1 7 5
11 10 8 13 -8 22 59 141 1079 75 632 117 958 126 973 l14 22 535 0 535 0 0
-25 c0 -25 -55 -495 -66 -567 l-6 -38 -257 0 -258 0 -14 -120 c-14 -111 -14
-120 2 -120 9 0 22 -7 29 -15 10 -12 47 -15 216 -15 l204 0 0 -27 c0 -16 -16
-152 -35 -303 -19 -151 -35 -278 -35 -282 0 -5 -107 -8 -238 -8 l-239 0 -12
-102 c-7 -57 -15 -120 -18 -140 -5 -33 -3 -38 14 -38 12 0 26 -7 33 -15 10
-13 52 -15 256 -15 133 0 245 -4 248 -8 3 -5 -10 -141 -29 -303 -19 -162 -35
-300 -35 -306 0 -10 -178 -13 -855 -13 l-855 0 0 33 c1 17 14 257 29 532 18
306 25 507 20 517 -5 9 -9 54 -10 100 l0 83 -180 -595 c-98 -327 -184 -612
-189 -632 l-11 -38 -159 0 c-88 0 -160 3 -160 8 -2 97 -71 1055 -77 1064 -4 7
-12 54 -18 103 l-10 90 -110 -632 -110 -633 -272 0 c-150 0 -273 4 -273 8 0 4
65 329 145 722 80 393 191 935 245 1204 55 269 100 490 100 492 0 1 7 10 16
18 13 14 54 16 294 16 l278 0 6 -27z m6366 3 c142 -26 274 -90 358 -174 128
-128 213 -341 242 -611 16 -140 8 -464 -15 -606 -80 -505 -308 -861 -633 -987
-136 -53 -186 -58 -623 -58 l-400 0 6 33 c3 17 69 563 146 1212 77 648 145
1185 151 1192 15 19 663 18 768 -1z m1835 -18 c4 -28 215 -2388 215 -2410 0
-5 -123 -8 -274 -8 l-273 0 -6 126 c-3 71 -10 131 -16 137 -6 6 -11 21 -11 34
l0 23 -209 0 -209 0 -39 -157 -39 -158 -297 -3 c-163 -1 -297 1 -297 5 0 26
801 2427 812 2434 7 5 153 9 325 9 l312 0 6 -32z m726 -108 c15 -74 43 -224
64 -333 23 -121 41 -194 46 -185 4 7 16 13 26 13 15 0 37 57 119 308 56 169
107 314 114 322 11 13 61 15 336 15 221 0 324 -3 324 -11 0 -5 -155 -331 -344
-722 l-344 -712 -61 -495 c-34 -272 -61 -498 -61 -502 0 -5 -128 -8 -285 -8
l-284 0 5 28 c2 15 29 233 59 485 l54 458 -205 711 c-112 392 -204 722 -204
733 0 12 3 25 7 28 4 4 142 6 307 5 l301 -3 26 -135z"/>
<path d="M4505 9412 c-53 -25 -128 -109 -164 -186 -91 -189 -113 -464 -51
-629 24 -64 94 -147 144 -171 189 -89 377 163 393 527 7 159 -6 238 -55 337
-49 98 -91 132 -170 137 -41 3 -68 -2 -97 -15z"/>
<path d="M10785 9411 c-54 -24 -128 -108 -166 -187 -40 -84 -75 -227 -84 -339
-16 -211 45 -381 164 -457 187 -118 396 144 418 522 10 182 -27 322 -108 414
-58 67 -143 84 -224 47z"/>
<path d="M12430 9403 c-1 -10 -27 -232 -59 -493 -36 -293 -55 -476 -49 -479 6
-2 18 -12 26 -22 11 -13 30 -19 58 -19 155 0 279 144 330 384 21 95 20 312 0
389 -31 114 -90 203 -157 237 -51 27 -149 28 -149 3z"/>
<path d="M14037 9044 c-71 -292 -104 -440 -96 -443 6 -2 19 -12 27 -22 14 -16
31 -19 114 -19 82 0 99 3 107 18 14 26 -6 754 -21 763 -6 4 -14 38 -17 75 l-6
68 -108 -440z"/>
<path d="M5160 6680 l0 -440 3650 0 c2676 0 3656 3 3674 11 15 7 33 31 46 61
l21 50 -95 258 c-53 141 -96 260 -96 264 0 4 21 6 46 4 l46 -3 59 -165 c33
-91 64 -182 70 -204 l10 -38 44 123 c23 68 56 160 72 204 l29 80 42 3 c23 2
42 -1 42 -7 0 -14 -207 -576 -225 -611 l-16 -30 1931 0 1930 0 0 440 0 440
-5640 0 -5640 0 0 -440z m2940 273 l0 -126 23 20 c88 81 236 67 291 -27 19
-32 21 -56 25 -242 l3 -208 -50 0 -51 0 -3 200 c-3 192 -4 200 -26 222 -31 31
-108 32 -149 2 -50 -37 -57 -64 -61 -251 l-4 -173 -44 0 -44 0 0 355 0 355 45
0 45 0 0 -127z m3620 -228 l0 -355 -40 0 c-39 0 -40 1 -40 36 l0 37 -20 -25
c-48 -62 -141 -75 -221 -32 -85 47 -122 119 -122 244 -1 128 41 211 128 251
45 21 115 25 148 8 12 -6 34 -23 50 -37 l27 -26 0 127 0 127 45 0 45 0 0 -355z
m3610 229 l0 -126 35 31 c42 37 70 45 135 39 110 -11 179 -99 188 -239 11
-185 -90 -311 -238 -297 -41 4 -58 12 -86 39 l-34 33 0 -32 c0 -31 -1 -32 -45
-32 l-45 0 0 355 0 355 45 0 45 0 0 -126z m-4695 -64 l45 0 0 -40 0 -40 -45 0
-45 0 0 -173 c0 -189 2 -197 56 -197 28 0 32 -4 37 -32 2 -18 3 -36 0 -40 -7
-12 -99 -9 -128 4 -49 22 -55 50 -55 253 l0 185 -30 0 c-28 0 -30 2 -30 40 0
38 2 40 30 40 l30 0 0 64 0 64 43 25 42 25 3 -89 3 -89 44 0z m-1760 -9 c50
-23 99 -74 121 -126 22 -53 22 -197 -1 -251 -52 -126 -202 -180 -331 -120 -92
43 -129 116 -128 251 0 135 41 204 144 249 49 21 146 20 195 -3z m551 4 c19
-8 42 -27 51 -43 l17 -30 19 24 c53 67 187 86 243 33 51 -48 54 -62 54 -289
l0 -210 -45 0 -45 0 0 190 c0 201 -5 230 -47 249 -35 16 -64 14 -101 -9 -54
-33 -62 -67 -62 -260 l0 -170 -44 0 -44 0 -4 201 -3 201 -28 24 c-33 28 -66
30 -112 8 -57 -27 -68 -65 -73 -261 l-5 -173 -43 0 -44 0 0 260 0 260 45 0
c44 0 45 -1 45 -32 l0 -32 28 27 c15 14 38 30 52 36 37 15 106 13 146 -4z
m812 -1 c81 -33 132 -110 140 -211 l5 -63 -192 0 c-190 0 -191 0 -191 -22 0
-12 9 -41 21 -64 27 -57 90 -89 154 -80 48 8 90 36 100 66 7 21 50 26 88 12
17 -7 16 -10 -6 -52 -34 -66 -100 -103 -187 -108 -38 -2 -85 1 -105 8 -51 17
-114 76 -138 129 -23 53 -27 165 -8 233 17 59 72 125 125 149 51 23 143 25
194 3z m829 -5 c53 -25 106 -86 121 -138 15 -48 15 -173 1 -226 -15 -55 -91
-127 -152 -144 -69 -20 -147 -10 -204 25 -115 70 -147 275 -64 406 57 90 197
126 298 77z m1120 2 c73 -33 77 -49 83 -271 4 -128 10 -203 18 -217 12 -22 12
-23 -37 -23 -47 0 -50 2 -56 29 l-6 30 -35 -24 c-53 -36 -99 -48 -170 -43 -97
6 -155 58 -156 140 -2 100 60 149 219 173 131 19 133 20 133 61 0 61 -68 95
-162 79 -41 -7 -88 -45 -88 -71 0 -16 -56 -19 -79 -5 -19 12 18 94 53 116 73
48 207 60 283 26z m1216 5 c41 -18 82 -61 102 -110 19 -45 11 -56 -41 -56 -25
0 -33 6 -47 36 -22 45 -73 68 -130 58 -81 -13 -124 -92 -114 -211 2 -34 13
-77 24 -95 53 -92 197 -84 229 13 11 32 15 34 53 33 23 0 43 -3 46 -5 10 -10
-20 -80 -48 -115 -81 -98 -242 -99 -334 -3 -43 46 -63 107 -63 193 0 134 43
215 135 257 48 22 142 25 188 5z m502 -5 c50 -23 99 -74 121 -126 22 -53 22
-197 -1 -251 -52 -126 -202 -180 -331 -120 -92 43 -129 116 -128 251 0 135 41
204 144 249 49 21 146 20 195 -3z m551 4 c19 -8 42 -27 51 -43 l17 -30 19 24
c53 67 187 86 243 33 51 -48 54 -62 54 -289 l0 -210 -45 0 -45 0 0 190 c0 201
-5 230 -47 249 -35 16 -64 14 -101 -9 -54 -33 -62 -67 -62 -260 l0 -170 -44 0
-44 0 -4 201 -3 201 -28 24 c-33 28 -66 30 -112 8 -57 -27 -68 -65 -73 -261
l-5 -173 -43 0 -44 0 0 260 0 260 45 0 c44 0 45 -1 45 -32 l0 -32 28 27 c15
14 38 30 52 36 37 15 106 13 146 -4z m1605 -2 c8 -8 8 -22 -1 -47 -13 -39 -17
-41 -54 -25 -19 9 -32 9 -57 -1 -52 -22 -62 -60 -67 -262 l-4 -178 -44 0 -44
0 0 260 0 260 40 0 c38 0 40 -2 40 -30 l0 -31 36 37 c35 34 40 36 91 32 29 -3
59 -10 64 -15z m-10332 -194 l55 -196 56 196 55 196 41 3 41 3 42 -153 c23
-84 48 -172 54 -196 l12 -42 59 195 59 195 45 0 c31 0 43 -4 40 -12 -3 -7 -42
-125 -88 -261 l-82 -248 -41 3 -41 3 -23 85 c-13 47 -36 133 -52 193 l-28 107
-43 -162 c-24 -90 -47 -178 -52 -195 -8 -31 -12 -33 -51 -33 l-43 0 -78 248
c-43 136 -81 253 -84 260 -3 10 7 12 43 10 l48 -3 56 -196z m720 0 l55 -196
56 196 55 196 41 3 41 3 42 -153 c23 -84 48 -172 54 -196 l12 -42 59 195 60
196 89 -3 90 -3 56 -196 55 -196 56 196 55 196 41 3 41 3 42 -153 c23 -84 48
-172 54 -196 l12 -42 59 195 59 195 45 0 c31 0 43 -4 40 -12 -3 -7 -42 -125
-88 -261 l-82 -248 -41 3 -41 3 -23 85 c-13 47 -36 133 -52 193 l-28 107 -43
-162 c-24 -90 -47 -178 -52 -195 -8 -31 -12 -33 -51 -33 l-43 0 -79 250 c-44
138 -82 250 -85 250 -3 0 -43 -113 -89 -251 l-83 -250 -41 3 -41 3 -23 85
c-13 47 -36 133 -52 193 l-28 107 -43 -162 c-24 -90 -47 -178 -52 -195 -8 -31
-12 -33 -51 -33 l-43 0 -78 248 c-43 136 -81 253 -84 260 -3 10 7 12 43 10
l48 -3 56 -196z m1411 -274 l0 -45 -50 0 -50 0 0 45 0 45 50 0 50 0 0 -45z
m5100 0 l0 -45 -50 0 -50 0 0 45 0 45 50 0 50 0 0 -45z m2140 0 l0 -45 -50 0
-50 0 0 45 0 45 50 0 50 0 0 -45z"/>
<path d="M11441 6802 c-52 -26 -76 -80 -76 -172 0 -58 5 -83 21 -110 62 -107
187 -103 236 8 28 62 22 172 -12 227 -38 61 -106 80 -169 47z"/>
<path d="M15411 6803 c-59 -31 -76 -64 -80 -158 -2 -71 1 -92 18 -129 49 -100
178 -99 228 2 25 51 25 184 0 229 -34 63 -106 87 -166 56z"/>
<path d="M8710 6802 c-70 -35 -101 -124 -80 -227 20 -94 86 -146 168 -130 82
15 122 78 122 188 -1 88 -27 142 -82 167 -53 24 -83 25 -128 2z"/>
<path d="M10096 6810 c-37 -12 -66 -38 -82 -77 -8 -18 -14 -35 -14 -38 0 -3
65 -5 144 -5 l145 0 -9 31 c-22 77 -99 114 -184 89z"/>
<path d="M10900 6803 c-67 -35 -99 -114 -85 -213 13 -96 80 -155 164 -147 88
9 131 70 131 187 0 83 -18 130 -62 163 -37 28 -105 32 -148 10z"/>
<path d="M12154 6609 c-12 -4 -59 -13 -103 -19 -121 -18 -161 -61 -112 -121
17 -21 28 -24 84 -24 51 0 72 5 93 21 48 35 66 67 62 111 -3 37 -5 40 -24 32z"/>
<path d="M13740 6802 c-70 -35 -101 -124 -80 -227 20 -94 86 -146 168 -130 82
15 122 78 122 188 -1 88 -27 142 -82 167 -53 24 -83 25 -128 2z"/>
<path d="M8680 5726 c0 -77 4 -126 10 -126 6 0 10 46 10 119 0 69 -4 122 -10
126 -6 4 -10 -38 -10 -119z"/>
<path d="M9190 5510 l0 -340 -36 0 c-28 0 -35 -3 -32 -17 4 -20 29 -27 64 -19
l24 6 0 355 c0 230 -4 355 -10 355 -6 0 -10 -120 -10 -340z"/>
<path d="M13240 5510 l0 -340 -30 0 c-20 0 -30 -5 -30 -15 0 -20 23 -29 55
-21 l25 6 0 355 c0 230 -4 355 -10 355 -6 0 -10 -120 -10 -340z"/>
<path d="M5827 5810 c-77 -15 -122 -75 -97 -128 l13 -27 8 35 c9 40 50 77 95
86 39 7 172 1 199 -10 18 -7 18 -5 -3 12 -38 35 -132 48 -215 32z"/>
<path d="M8360 5760 c0 -33 4 -60 10 -60 6 0 10 27 10 60 0 33 -4 60 -10 60
-6 0 -10 -27 -10 -60z"/>
<path d="M12007 5810 c-77 -15 -122 -75 -97 -128 l13 -27 8 35 c9 40 50 77 95
86 39 7 172 1 199 -10 18 -7 18 -5 -3 12 -38 35 -132 48 -215 32z"/>
<path d="M14937 5785 c-35 -31 -82 -32 -161 -5 -43 14 -63 17 -77 9 -10 -5
-19 -14 -19 -18 0 -5 -10 -11 -22 -14 -18 -5 -19 -8 -8 -21 17 -21 33 -20 55
4 22 24 59 26 108 5 37 -15 103 -20 132 -9 14 6 45 53 45 69 0 13 -27 2 -53
-20z"/>
<path d="M6194 5718 c3 -26 1 -28 -35 -28 -22 0 -39 -4 -39 -8 0 -31 76 -45
87 -16 3 8 1 29 -6 47 -10 29 -10 30 -7 5z"/>
<path d="M12374 5718 c3 -26 1 -28 -35 -28 -22 0 -39 -4 -39 -8 0 -31 76 -45
87 -16 3 8 1 29 -6 47 -10 29 -10 30 -7 5z"/>
<path d="M6430 5635 c0 -8 2 -15 4 -15 2 0 6 7 10 15 3 8 1 15 -4 15 -6 0 -10
-7 -10 -15z"/>
<path d="M8171 5627 c-9 -24 -15 -27 -34 -20 -40 14 -86 7 -111 -16 -36 -34
-46 -93 -46 -265 l0 -156 -31 0 c-24 0 -30 -4 -27 -17 2 -13 13 -18 38 -18
l35 0 6 175 c7 186 12 211 52 248 20 19 34 23 76 21 61 -3 73 6 62 46 l-8 30
-12 -28z"/>
<path d="M8460 5630 c0 -17 -7 -20 -50 -20 l-50 0 0 -169 c0 -219 18 -242 22
-29 l3 153 25 3 c64 7 70 11 70 47 0 19 -4 35 -10 35 -5 0 -10 -9 -10 -20z"/>
<path d="M10050 5635 c0 -8 2 -15 4 -15 2 0 6 7 10 15 3 8 1 15 -4 15 -6 0
-10 -7 -10 -15z"/>
<path d="M13480 5493 c1 -124 4 -163 16 -183 l15 -25 -5 25 c-3 14 -6 96 -6
183 0 98 -4 157 -10 157 -6 0 -10 -59 -10 -157z"/>
<path d="M13850 5411 l0 -240 -27 -3 c-14 -2 -28 -8 -30 -15 -5 -15 31 -26 57
-18 19 6 20 15 20 261 0 163 -4 254 -10 254 -6 0 -10 -86 -10 -239z"/>
<path d="M6536 5610 c-78 -24 -96 -80 -96 -295 l0 -145 -31 0 c-24 0 -30 -4
-27 -17 2 -13 13 -18 38 -18 l35 0 7 172 c9 228 26 261 140 272 52 5 59 8 46
19 -22 17 -76 23 -112 12z"/>
<path d="M6855 5601 c-66 -31 -70 -43 -73 -248 l-4 -183 -30 0 c-23 0 -29 -4
-26 -17 2 -13 13 -18 38 -18 l35 0 5 175 c4 141 9 181 23 207 22 42 64 63 122
63 52 0 59 13 14 29 -43 15 -57 14 -104 -8z"/>
<path d="M7423 5611 c-39 -10 -60 -26 -68 -52 -4 -13 -16 -19 -37 -19 -43 0
-30 -24 15 -28 28 -2 38 1 47 17 20 38 65 53 151 49 43 -2 79 0 79 3 0 24
-129 45 -187 30z"/>
<path d="M9517 5605 c-50 -17 -84 -49 -98 -92 -13 -39 -8 -158 6 -173 7 -6 9
12 7 48 -4 70 26 135 78 170 31 21 44 23 109 19 65 -4 72 -2 56 9 -20 15 -80
34 -105 34 -8 -1 -32 -7 -53 -15z"/>
<path d="M10156 5610 c-78 -24 -96 -80 -96 -295 l0 -145 -31 0 c-24 0 -30 -4
-27 -17 2 -13 13 -18 38 -18 l35 0 7 172 c9 228 26 261 140 272 52 5 59 8 46
19 -22 17 -76 23 -112 12z"/>
<path d="M10475 5601 c-66 -31 -70 -43 -73 -248 l-4 -183 -30 0 c-23 0 -29 -4
-26 -17 2 -13 13 -18 38 -18 l35 0 5 175 c4 141 9 181 23 207 22 42 64 63 122
63 52 0 59 13 14 29 -43 15 -57 14 -104 -8z"/>
<path d="M11048 5608 c-57 -15 -129 -108 -85 -108 8 0 24 12 38 26 43 46 75
57 158 52 65 -5 72 -3 56 8 -23 17 -82 34 -110 33 -11 -1 -37 -6 -57 -11z"/>
<path d="M12707 5605 c-50 -17 -84 -49 -98 -92 -13 -39 -8 -158 6 -173 7 -6 9
12 7 48 -4 70 26 135 78 170 31 21 44 23 109 19 65 -4 72 -2 56 9 -20 15 -80
34 -105 34 -8 -1 -32 -7 -53 -15z"/>
<path d="M14177 5606 c-47 -17 -64 -31 -85 -70 -19 -37 -22 -161 -4 -191 9
-17 11 -8 12 50 0 84 20 129 70 163 30 20 45 23 102 20 53 -3 65 -1 56 9 -10
13 -71 33 -98 33 -8 -1 -32 -7 -53 -14z"/>
<path d="M14726 5610 c-69 -21 -106 -83 -106 -177 0 -95 17 -114 22 -24 4 78
21 109 79 149 29 20 44 23 101 20 53 -3 65 -1 56 9 -12 14 -73 33 -103 32 -11
0 -33 -5 -49 -9z"/>
<path d="M15338 5608 c-57 -15 -129 -108 -85 -108 8 0 24 12 38 26 43 46 75
57 158 52 65 -5 72 -3 56 8 -23 17 -82 34 -110 33 -11 -1 -37 -6 -57 -11z"/>
<path d="M15915 5613 c-41 -9 -65 -27 -65 -48 0 -34 11 -36 43 -9 28 24 37 26
108 22 61 -2 75 0 67 9 -20 25 -99 38 -153 26z"/>
<path d="M8227 5603 c-8 -7 11 -33 24 -33 5 0 9 9 9 20 0 19 -20 27 -33 13z"/>
<path d="M7728 5427 c2 -141 15 -263 25 -246 7 12 -10 387 -18 401 -7 11 -9
-38 -7 -155z"/>
<path d="M7121 5378 l-1 -207 -32 -3 c-18 -2 -32 -7 -31 -13 3 -18 29 -28 56
-21 l27 6 -1 203 c0 111 -4 211 -9 222 -5 12 -9 -62 -9 -187z"/>
<path d="M10741 5378 l-1 -207 -32 -3 c-18 -2 -32 -7 -31 -13 3 -18 29 -28 56
-21 l27 6 -1 203 c0 111 -4 211 -9 222 -5 12 -9 -62 -9 -187z"/>
<path d="M16180 5560 c-8 -5 -27 -10 -42 -10 -20 0 -26 -4 -22 -15 4 -10 20
-15 45 -15 35 0 39 3 39 25 0 28 0 28 -20 15z"/>
<path d="M5715 5550 c14 -22 92 -52 212 -81 69 -16 136 -35 147 -41 l21 -10
-20 21 c-14 14 -64 32 -158 56 -76 19 -153 42 -173 50 -19 8 -32 10 -29 5z"/>
<path d="M11895 5550 c14 -22 92 -52 212 -81 69 -16 136 -35 147 -41 l21 -10
-20 21 c-14 14 -64 32 -158 56 -76 19 -153 42 -173 50 -19 8 -32 10 -29 5z"/>
<path d="M14452 5544 c-7 -8 -27 -14 -44 -14 -26 0 -29 -2 -18 -15 14 -16 75
-21 84 -6 4 5 3 18 -1 29 -7 17 -10 18 -21 6z"/>
<path d="M11368 5473 l5 -63 -217 0 -216 0 6 -27 c4 -16 10 -35 15 -43 7 -12
8 -10 9 8 l0 22 194 0 c107 0 201 3 210 6 19 7 20 61 2 119 -13 40 -13 40 -8
-22z"/>
<path d="M15658 5473 l5 -63 -217 0 -216 0 6 -27 c4 -16 10 -35 15 -43 7 -12
8 -10 9 8 l0 22 194 0 c107 0 201 3 210 6 19 7 20 61 2 119 -13 40 -13 40 -8
-22z"/>
<path d="M9841 5444 c-1 -132 -41 -207 -136 -257 -53 -27 -174 -35 -232 -14
-53 18 -45 2 11 -24 48 -22 157 -25 218 -7 53 16 122 79 143 130 19 49 23 187
6 228 -8 20 -10 9 -10 -56z"/>
<path d="M13031 5444 c-1 -132 -41 -207 -136 -257 -53 -27 -174 -35 -232 -14
-53 18 -45 2 11 -24 48 -22 157 -25 218 -7 53 16 122 79 143 130 19 49 23 187
6 228 -8 20 -10 9 -10 -56z"/>
<path d="M8680 5340 l0 -170 -33 0 c-40 0 -51 -8 -36 -27 14 -16 61 -17 77 -1
8 8 12 60 12 170 l0 158 190 0 c183 0 190 1 190 20 0 19 -7 20 -200 20 l-200
0 0 -170z"/>
<path d="M15048 5425 c-6 -126 -43 -191 -138 -241 -49 -27 -210 -27 -260 -1
-29 15 -32 15 -15 1 72 -59 209 -73 301 -30 58 27 106 80 123 135 12 43 14
175 2 206 -5 13 -10 -12 -13 -70z"/>
<path d="M15820 5426 c0 -12 81 -46 161 -66 46 -11 92 -23 102 -26 28 -9 19
13 -10 24 -16 6 -71 22 -123 36 -52 13 -103 28 -112 31 -10 4 -18 4 -18 1z"/>
<path d="M6221 5379 c-2 -93 -85 -184 -193 -209 -74 -18 -221 -8 -283 18 -62
27 -32 0 35 -31 64 -30 227 -36 300 -12 61 20 127 76 147 122 15 36 16 97 3
128 -7 16 -9 13 -9 -16z"/>
<path d="M7490 5393 c-119 -18 -144 -29 -148 -67 -4 -36 13 -57 23 -27 10 32
50 48 158 61 84 11 97 15 97 31 0 22 1 22 -130 2z"/>
<path d="M12401 5379 c-2 -93 -85 -184 -193 -209 -74 -18 -221 -8 -283 18 -62
27 -32 0 35 -31 64 -30 227 -36 300 -12 61 20 127 76 147 122 15 36 16 97 3
128 -7 16 -9 13 -9 -16z"/>
<path d="M16211 5331 c-1 -50 -42 -112 -93 -141 -55 -31 -190 -40 -255 -17
-53 18 -45 2 11 -24 65 -29 197 -26 262 6 77 38 113 122 84 190 -7 17 -9 14
-9 -14z"/>
<path d="M14435 5262 c-31 -49 -115 -102 -161 -102 -14 0 -28 -9 -35 -21 -11
-21 -10 -22 42 -15 73 9 138 44 171 92 29 41 40 85 23 90 -5 1 -23 -18 -40
-44z"/>
<path d="M11330 5250 c-12 -16 -42 -42 -67 -57 -58 -34 -180 -43 -258 -19 -49
15 -50 15 -26 -3 37 -28 90 -41 173 -41 93 0 166 32 205 91 38 57 13 85 -27
29z"/>
<path d="M15620 5250 c-12 -16 -42 -42 -67 -57 -58 -34 -180 -43 -258 -19 -49
15 -50 15 -26 -3 37 -28 90 -41 173 -41 93 0 166 32 205 91 38 57 13 85 -27
29z"/>
<path d="M13725 5220 c-45 -51 -161 -76 -231 -50 -45 18 -40 2 7 -20 59 -27
147 -27 200 0 43 22 52 36 47 70 l-3 22 -20 -22z"/>
<path d="M7590 5205 c-19 -12 -50 -27 -69 -33 -42 -15 -150 -16 -187 -2 -23 9
-25 9 -15 -4 36 -44 191 -48 274 -7 31 15 47 29 47 41 0 29 -12 30 -50 5z"/>
<path d="M8467 5181 c-5 -21 -10 -22 -76 -19 -39 1 -71 0 -71 -3 0 -14 55 -29
106 -29 59 0 71 10 56 50 l-9 24 -6 -23z"/>
<path d="M14095 5180 c11 -18 63 -41 70 -30 3 6 -2 13 -12 16 -10 3 -28 10
-41 15 -15 6 -21 6 -17 -1z"/>
<path d="M7680 5156 c0 -19 40 -31 70 -21 34 11 17 30 -28 33 -32 2 -42 0 -42
-12z"/>
<path d="M14192 5058 c5 -15 28 -18 29 -3 0 6 -7 12 -17 13 -10 3 -15 -1 -12
-10z"/>
<path d="M14313 5017 c-15 -33 -71 -57 -132 -57 -39 0 -51 -4 -51 -15 0 -21
120 -21 165 0 35 17 58 55 49 80 -9 21 -19 19 -31 -8z"/>
</g>
</svg>
